# xmcd
#
# Track frame offsets:
#	150
#	19331
#	37598
#	57910
#	76301
#	92382
#	110631
#	128419
#	144752
#	161084
#	178209
#	191514
#	212248
#	234392
#	252251
#	270630
#
# Disc length: 3738 seconds
#
# Revision: 0
# Processed by: cddbd v1.5.2PL0 Copyright (c) Steve Scherf et al.
# Submitted via: EZCDAudioConverter 6.0.0.1
#
DISCID=ce0e9810
DTITLE=Mirabela Dauer - Best Of... Mirabela
DYEAR=1900
DGENRE=
TTITLE0=1 Asa e viata - 1 Asa e viata
TTITLE1=9 Poveste de dragoste - 9 Poveste de dragoste
TTITLE2=4 Floare alba - 4 Floare alba
TTITLE3=7 Mi - e dor sa mai cred
TTITLE4=3 Esti barbatul - 3 Esti barbatul
TTITLE5=10 - Tigancusa
TTITLE6=12 Te astept sa vii - 12 Te astept sa vii
TTITLE7=2 De ce nu - mi spui
TTITLE8=13 Stai langa fruntea mea - 13 Stai langa fruntea mea
TTITLE9=14 Multumesc iubita mea - 14 Multumesc iubita mea
TTITLE10=15 Noapte de mai - 15 Noapte de mai
TTITLE11=5 Frunza mea - 5 Frunza mea
TTITLE12=Mirabela Dauer - Insingurare
TTITLE13=Plange un artist - 8 Plange un artist
TTITLE14=11 Sa stii ca nu - i adevarat
TTITLE15=16 - Marorita
EXTD=
EXTT0=
EXTT1=
EXTT2=
EXTT3=
EXTT4=
EXTT5=
EXTT6=
EXTT7=
EXTT8=
EXTT9=
EXTT10=
EXTT11=
EXTT12=
EXTT13=
EXTT14=
EXTT15=
PLAYORDER=
